# xmcd CD database file
#
# Track frame offsets:
#	150
#	22637
#	41139
#	58894
#	75182
#	98048
#	123800
#	146753
#	164640
#
# Disc length: 2634 seconds
#
# Revision: 1
# Processed by: cddbd v1.5.2PL0 Copyright (c) Steve Scherf et al.
# Submitted via: CDex 1.70beta2
#
DISCID=6b0a4809
DTITLE=גבריאל בלחסן - בשדות
DYEAR=2006
DGENRE=Blues
TTITLE0=העוקד הנעקד והמזבח
TTITLE1=שלושה אביבים
TTITLE2=עריסת יהלום
TTITLE3=תפילה צעד 11
TTITLE4=בשדות
TTITLE5=עננו
TTITLE6=עץ אגוז
TTITLE7=מחיאות כפיים
TTITLE8=ברוך הבא
EXTD=YEAR: 2006
EXTT0=
EXTT1=
EXTT2=
EXTT3=
EXTT4=
EXTT5=
EXTT6=
EXTT7=
EXTT8=
PLAYORDER=
